<svg width="22" height="22" viewBox="0 0 22 22" fill="none" xmlns="http://www.w3.org/2000/svg">
<path d="M21.575 2.57881C22.2224 1.91101 22.1193 0.919127 21.3402 0.364261C20.5611 -0.190604 19.4039 -0.102218 18.7566 0.565584L11 8.54484L3.24345 0.565584C2.59611 -0.102218 1.43893 -0.190604 0.659839 0.364261C-0.119253 0.919127 -0.222368 1.91101 0.424966 2.57881L8.61117 11L0.424966 19.4212C-0.222368 20.089 -0.119253 21.0809 0.659839 21.6357C1.43893 22.1906 2.59611 22.1022 3.24345 21.4344L11 13.4552L18.7566 21.4344C19.4039 22.1022 20.5611 22.1906 21.3402 21.6357C22.1193 21.0809 22.2224 20.089 21.575 19.4212L13.3888 11L21.575 2.57881Z" fill="#6166F5"/>
</svg>
