<svg width="83" height="85" viewBox="0 0 83 85" fill="none" xmlns="http://www.w3.org/2000/svg">
<path d="M16.8997 59.2194C24.7561 59.2194 31.1249 52.8366 31.1249 44.9627C31.1249 37.0889 24.7561 30.7061 16.8997 30.7061C9.04331 30.7061 2.67444 37.0889 2.67444 44.9627C2.67444 52.8366 9.04331 59.2194 16.8997 59.2194Z" fill="url(#paint0_linear_1160_3024)"/>
<path d="M16.8997 59.2194C24.7561 59.2194 31.1249 52.8366 31.1249 44.9627C31.1249 37.0889 24.7561 30.7061 16.8997 30.7061C9.04331 30.7061 2.67444 37.0889 2.67444 44.9627C2.67444 52.8366 9.04331 59.2194 16.8997 59.2194Z" fill="url(#paint1_linear_1160_3024)"/>
<path d="M16.8997 59.2194C24.7561 59.2194 31.1249 52.8366 31.1249 44.9627C31.1249 37.0889 24.7561 30.7061 16.8997 30.7061C9.04331 30.7061 2.67444 37.0889 2.67444 44.9627C2.67444 52.8366 9.04331 59.2194 16.8997 59.2194Z" fill="url(#paint2_radial_1160_3024)" fill-opacity="0.5"/>
<path d="M65.9666 59.2194C73.8231 59.2194 80.192 52.8366 80.192 44.9627C80.192 37.0889 73.8231 30.7061 65.9666 30.7061C58.1104 30.7061 51.7415 37.0889 51.7415 44.9627C51.7415 52.8366 58.1104 59.2194 65.9666 59.2194Z" fill="url(#paint3_linear_1160_3024)"/>
<g filter="url(#filter0_f_1160_3024)">
<path d="M69.6082 32.7432C72.1482 33.1327 77.0626 36.5395 78.1496 42.0122C79.406 46.7165 77.7038 52.7409 73.8131 55.0932" stroke="url(#paint4_radial_1160_3024)" stroke-opacity="0.8" stroke-width="0.5" stroke-linecap="round"/>
</g>
<path d="M41.5 77.569C62.1626 77.569 72.4878 63.4428 72.4878 46.0176C72.4878 28.5923 62.1626 14.4663 41.5 14.4663C20.8373 14.4663 10.5121 28.5923 10.5121 46.0176C10.5121 63.4428 20.8373 77.569 41.5 77.569Z" fill="url(#paint5_radial_1160_3024)"/>
<path d="M41.5 77.569C62.1626 77.569 72.4878 63.4428 72.4878 46.0176C72.4878 28.5923 62.1626 14.4663 41.5 14.4663C20.8373 14.4663 10.5121 28.5923 10.5121 46.0176C10.5121 63.4428 20.8373 77.569 41.5 77.569Z" fill="url(#paint6_linear_1160_3024)"/>
<path d="M41.5 77.569C62.1626 77.569 72.4878 63.4428 72.4878 46.0176C72.4878 28.5923 62.1626 14.4663 41.5 14.4663C20.8373 14.4663 10.5121 28.5923 10.5121 46.0176C10.5121 63.4428 20.8373 77.569 41.5 77.569Z" fill="url(#paint7_radial_1160_3024)"/>
<path d="M41.5 77.569C62.1626 77.569 72.4878 63.4428 72.4878 46.0176C72.4878 28.5923 62.1626 14.4663 41.5 14.4663C20.8373 14.4663 10.5121 28.5923 10.5121 46.0176C10.5121 63.4428 20.8373 77.569 41.5 77.569Z" fill="url(#paint8_radial_1160_3024)"/>
<g filter="url(#filter1_f_1160_3024)">
<path d="M65.2028 44.6747C67.6334 43.6038 67.6055 38.0336 65.1404 32.2335C62.6753 26.4333 58.7066 22.5994 56.276 23.6703C53.8454 24.7412 53.8733 30.3114 56.3384 36.1116C58.8035 41.9117 62.7723 45.7456 65.2028 44.6747Z" fill="#C58E7D"/>
</g>
<g filter="url(#filter2_f_1160_3024)">
<path d="M48.8585 18.4087C48.8585 17.8457 45.3008 17.3893 40.9123 17.3893C36.5237 17.3893 32.9661 17.8457 32.9661 18.4087C32.9661 18.9718 36.5237 19.4282 40.9123 19.4282C45.3008 19.4282 48.8585 18.9718 48.8585 18.4087Z" fill="#C58E7D"/>
</g>
<g filter="url(#filter3_f_1160_3024)">
<path d="M30.8068 24.1602C23.9891 24.1602 18.4622 29.7876 18.4622 36.7292C18.4622 39.795 19.5402 42.6047 21.3314 44.7861C21.6071 45.122 21.7267 45.5651 21.6467 45.9954C21.4242 47.1909 21.3078 48.4247 21.3078 49.686C21.3078 60.5718 29.975 69.3967 40.6664 69.3967C51.3581 69.3967 60.0251 60.5718 60.0251 49.686C60.0251 48.4247 59.9087 47.1909 59.6864 45.9954C59.6062 45.5651 59.7258 45.122 60.0015 44.7861C61.7928 42.6047 62.8707 39.795 62.8707 36.7292C62.8707 29.7876 57.344 24.1602 50.5263 24.1602H30.8068Z" fill="#561E25"/>
</g>
<path d="M31.5301 23.5059C24.6364 23.5059 19.0479 29.1961 19.0479 36.2152C19.0479 39.3182 20.1399 42.1612 21.9541 44.3679C22.23 44.7036 22.3495 45.147 22.2693 45.5769C22.0435 46.7883 21.9253 48.0385 21.9253 49.3167C21.9253 60.324 30.6893 69.2471 41.5 69.2471C52.3108 69.2471 61.0748 60.324 61.0748 49.3167C61.0748 48.0385 60.9565 46.7883 60.7306 45.5769C60.6504 45.147 60.77 44.7036 61.046 44.3679C62.8601 42.1612 63.952 39.3182 63.952 36.2152C63.952 29.1961 58.3635 23.5059 51.4699 23.5059H31.5301Z" fill="url(#paint9_linear_1160_3024)"/>
<path d="M31.5301 23.5059C24.6364 23.5059 19.0479 29.1961 19.0479 36.2152C19.0479 39.3182 20.1399 42.1612 21.9541 44.3679C22.23 44.7036 22.3495 45.147 22.2693 45.5769C22.0435 46.7883 21.9253 48.0385 21.9253 49.3167C21.9253 60.324 30.6893 69.2471 41.5 69.2471C52.3108 69.2471 61.0748 60.324 61.0748 49.3167C61.0748 48.0385 60.9565 46.7883 60.7306 45.5769C60.6504 45.147 60.77 44.7036 61.046 44.3679C62.8601 42.1612 63.952 39.3182 63.952 36.2152C63.952 29.1961 58.3635 23.5059 51.4699 23.5059H31.5301Z" fill="url(#paint10_radial_1160_3024)"/>
<path d="M31.5301 23.5059C24.6364 23.5059 19.0479 29.1961 19.0479 36.2152C19.0479 39.3182 20.1399 42.1612 21.9541 44.3679C22.23 44.7036 22.3495 45.147 22.2693 45.5769C22.0435 46.7883 21.9253 48.0385 21.9253 49.3167C21.9253 60.324 30.6893 69.2471 41.5 69.2471C52.3108 69.2471 61.0748 60.324 61.0748 49.3167C61.0748 48.0385 60.9565 46.7883 60.7306 45.5769C60.6504 45.147 60.77 44.7036 61.046 44.3679C62.8601 42.1612 63.952 39.3182 63.952 36.2152C63.952 29.1961 58.3635 23.5059 51.4699 23.5059H31.5301Z" fill="url(#paint11_radial_1160_3024)"/>
<g filter="url(#filter4_f_1160_3024)">
<path d="M14.8106 28.5879C10.6795 38.9651 11.1498 54.1566 15.6686 60.6216" stroke="url(#paint12_linear_1160_3024)" stroke-opacity="0.4" stroke-width="0.8" stroke-linecap="round"/>
</g>
<g filter="url(#filter5_f_1160_3024)">
<path d="M69.824 34.2134C71.9768 42.8748 71.7695 54.1853 67.8789 60.6225" stroke="url(#paint13_linear_1160_3024)" stroke-opacity="0.5" stroke-width="0.4" stroke-linecap="round"/>
</g>
<g filter="url(#filter6_f_1160_3024)">
<path d="M55.5574 25.1299C58.9204 26.4751 65.1278 31.7192 62.029 40.6713" stroke="url(#paint14_linear_1160_3024)" stroke-width="0.4" stroke-linecap="round"/>
</g>
<g filter="url(#filter7_f_1160_3024)">
<path d="M59.691 45.582C60.9879 53.3397 58.1511 59.1167 55.5574 61.5101" stroke="url(#paint15_linear_1160_3024)" stroke-width="0.1" stroke-linecap="round"/>
</g>
<path d="M31.1411 53.8896C31.1411 59.9524 35.4164 64.4678 41.5 64.4678C48.0438 64.4678 51.8589 59.7622 51.8589 53.8896H31.1411Z" fill="url(#paint16_radial_1160_3024)"/>
<g filter="url(#filter8_f_1160_3024)">
<path d="M34.5117 37.907C34.5117 36.7219 33.5682 35.7612 32.4043 35.7612C31.2404 35.7612 30.2969 36.7219 30.2969 37.907V42.1984C30.2969 43.3835 31.2404 44.3442 32.4043 44.3442C33.5682 44.3442 34.5117 43.3835 34.5117 42.1984V37.907Z" fill="#BB6F89" fill-opacity="0.6"/>
</g>
<g filter="url(#filter9_f_1160_3024)">
<path d="M50.5322 37.907C50.5322 36.7219 49.5887 35.7612 48.4248 35.7612C47.2609 35.7612 46.3174 36.7219 46.3174 37.907V42.1984C46.3174 43.3835 47.2609 44.3442 48.4248 44.3442C49.5887 44.3442 50.5322 43.3835 50.5322 42.1984V37.907Z" fill="#BB6F89" fill-opacity="0.6"/>
</g>
<path d="M33.7276 35.3516H33.7275C32.6474 35.3516 31.7719 36.2431 31.7719 37.3428V41.3253C31.7719 42.4251 32.6474 43.3166 33.7275 43.3166H33.7276C34.8077 43.3166 35.6833 42.4251 35.6833 41.3253V37.3428C35.6833 36.2431 34.8077 35.3516 33.7276 35.3516Z" fill="url(#paint17_linear_1160_3024)"/>
<path d="M33.7276 35.3516H33.7275C32.6474 35.3516 31.7719 36.2431 31.7719 37.3428V41.3253C31.7719 42.4251 32.6474 43.3166 33.7275 43.3166H33.7276C34.8077 43.3166 35.6833 42.4251 35.6833 41.3253V37.3428C35.6833 36.2431 34.8077 35.3516 33.7276 35.3516Z" fill="url(#paint18_linear_1160_3024)"/>
<path d="M49.2727 35.3516H49.2727C48.1926 35.3516 47.317 36.2431 47.317 37.3428V41.3253C47.317 42.4251 48.1926 43.3166 49.2727 43.3166H49.2727C50.3528 43.3166 51.2284 42.4251 51.2284 41.3253V37.3428C51.2284 36.2431 50.3528 35.3516 49.2727 35.3516Z" fill="url(#paint19_linear_1160_3024)"/>
<path d="M49.2727 35.3516H49.2727C48.1926 35.3516 47.317 36.2431 47.317 37.3428V41.3253C47.317 42.4251 48.1926 43.3166 49.2727 43.3166H49.2727C50.3528 43.3166 51.2284 42.4251 51.2284 41.3253V37.3428C51.2284 36.2431 50.3528 35.3516 49.2727 35.3516Z" fill="url(#paint20_linear_1160_3024)"/>
<g filter="url(#filter10_f_1160_3024)">
<path d="M44.9478 44.3442H36.8771C35.2784 44.3442 33.9823 45.6639 33.9823 47.2917V47.7817C33.9823 49.4095 35.2784 50.7291 36.8771 50.7291H44.9478C46.5466 50.7291 47.8427 49.4095 47.8427 47.7817V47.2917C47.8427 45.6639 46.5466 44.3442 44.9478 44.3442Z" fill="#BB6F89"/>
</g>
<path d="M44.9477 43.2773H38.0523C36.4535 43.2773 35.1575 44.597 35.1575 46.2248C35.1575 47.8526 36.4535 49.1722 38.0523 49.1722H44.9477C46.5465 49.1722 47.8425 47.8526 47.8425 46.2248C47.8425 44.597 46.5465 43.2773 44.9477 43.2773Z" fill="url(#paint21_linear_1160_3024)"/>
<path d="M44.9477 43.2773H38.0523C36.4535 43.2773 35.1575 44.597 35.1575 46.2248C35.1575 47.8526 36.4535 49.1722 38.0523 49.1722H44.9477C46.5465 49.1722 47.8425 47.8526 47.8425 46.2248C47.8425 44.597 46.5465 43.2773 44.9477 43.2773Z" fill="url(#paint22_linear_1160_3024)"/>
<path d="M37.7357 48.6354C38.4688 48.6354 39.063 48.0304 39.063 47.284C39.063 46.5377 38.4688 45.9326 37.7357 45.9326C37.0027 45.9326 36.4084 46.5377 36.4084 47.284C36.4084 48.0304 37.0027 48.6354 37.7357 48.6354Z" fill="url(#paint23_radial_1160_3024)"/>
<path d="M44.9901 48.6354C45.7231 48.6354 46.3174 48.0304 46.3174 47.284C46.3174 46.5377 45.7231 45.9326 44.9901 45.9326C44.2571 45.9326 43.6628 46.5377 43.6628 47.284C43.6628 48.0304 44.2571 48.6354 44.9901 48.6354Z" fill="url(#paint24_radial_1160_3024)"/>
<g filter="url(#filter11_f_1160_3024)">
<path d="M44.7238 44.9011C45.6155 44.7155 46.8514 45.3963 46.9933 46.7786" stroke="url(#paint25_linear_1160_3024)" stroke-width="0.05"/>
</g>
<g filter="url(#filter12_f_1160_3024)">
<path d="M49.7964 37.7592C50.2028 37.7592 50.5323 37.4238 50.5323 37.01C50.5323 36.5962 50.2028 36.2607 49.7964 36.2607C49.39 36.2607 49.0605 36.5962 49.0605 37.01C49.0605 37.4238 49.39 37.7592 49.7964 37.7592Z" fill="#795D72"/>
</g>
<g filter="url(#filter13_f_1160_3024)">
<path d="M34.4217 38.1396C34.8281 38.1396 35.1575 37.8042 35.1575 37.3904C35.1575 36.9766 34.8281 36.6411 34.4217 36.6411C34.0152 36.6411 33.6858 36.9766 33.6858 37.3904C33.6858 37.8042 34.0152 38.1396 34.4217 38.1396Z" fill="#795D72"/>
</g>
<defs>
<filter id="filter0_f_1160_3024" x="68.9582" y="32.0932" width="10.2493" height="23.6501" filterUnits="userSpaceOnUse" color-interpolation-filters="sRGB">
<feFlood flood-opacity="0" result="BackgroundImageFix"/>
<feBlend mode="normal" in="SourceGraphic" in2="BackgroundImageFix" result="shape"/>
<feGaussianBlur stdDeviation="0.2" result="effect1_foregroundBlur_1160_3024"/>
</filter>
<filter id="filter1_f_1160_3024" x="50.9712" y="19.9907" width="19.5365" height="28.3633" filterUnits="userSpaceOnUse" color-interpolation-filters="sRGB">
<feFlood flood-opacity="0" result="BackgroundImageFix"/>
<feBlend mode="normal" in="SourceGraphic" in2="BackgroundImageFix" result="shape"/>
<feGaussianBlur stdDeviation="1.75" result="effect1_foregroundBlur_1160_3024"/>
</filter>
<filter id="filter2_f_1160_3024" x="29.4661" y="13.8892" width="22.8925" height="9.03906" filterUnits="userSpaceOnUse" color-interpolation-filters="sRGB">
<feFlood flood-opacity="0" result="BackgroundImageFix"/>
<feBlend mode="normal" in="SourceGraphic" in2="BackgroundImageFix" result="shape"/>
<feGaussianBlur stdDeviation="1.75" result="effect1_foregroundBlur_1160_3024"/>
</filter>
<filter id="filter3_f_1160_3024" x="16.4622" y="22.1602" width="48.4086" height="49.2363" filterUnits="userSpaceOnUse" color-interpolation-filters="sRGB">
<feFlood flood-opacity="0" result="BackgroundImageFix"/>
<feBlend mode="normal" in="SourceGraphic" in2="BackgroundImageFix" result="shape"/>
<feGaussianBlur stdDeviation="1" result="effect1_foregroundBlur_1160_3024"/>
</filter>
<filter id="filter4_f_1160_3024" x="11.1768" y="27.788" width="5.29182" height="33.6335" filterUnits="userSpaceOnUse" color-interpolation-filters="sRGB">
<feFlood flood-opacity="0" result="BackgroundImageFix"/>
<feBlend mode="normal" in="SourceGraphic" in2="BackgroundImageFix" result="shape"/>
<feGaussianBlur stdDeviation="0.2" result="effect1_foregroundBlur_1160_3024"/>
</filter>
<filter id="filter5_f_1160_3024" x="67.2788" y="33.6132" width="4.51167" height="27.6091" filterUnits="userSpaceOnUse" color-interpolation-filters="sRGB">
<feFlood flood-opacity="0" result="BackgroundImageFix"/>
<feBlend mode="normal" in="SourceGraphic" in2="BackgroundImageFix" result="shape"/>
<feGaussianBlur stdDeviation="0.2" result="effect1_foregroundBlur_1160_3024"/>
</filter>
<filter id="filter6_f_1160_3024" x="54.9573" y="24.5297" width="8.5135" height="16.7419" filterUnits="userSpaceOnUse" color-interpolation-filters="sRGB">
<feFlood flood-opacity="0" result="BackgroundImageFix"/>
<feBlend mode="normal" in="SourceGraphic" in2="BackgroundImageFix" result="shape"/>
<feGaussianBlur stdDeviation="0.2" result="effect1_foregroundBlur_1160_3024"/>
</filter>
<filter id="filter7_f_1160_3024" x="55.1073" y="45.1322" width="5.35823" height="16.8278" filterUnits="userSpaceOnUse" color-interpolation-filters="sRGB">
<feFlood flood-opacity="0" result="BackgroundImageFix"/>
<feBlend mode="normal" in="SourceGraphic" in2="BackgroundImageFix" result="shape"/>
<feGaussianBlur stdDeviation="0.2" result="effect1_foregroundBlur_1160_3024"/>
</filter>
<filter id="filter8_f_1160_3024" x="29.2969" y="34.7612" width="6.21484" height="10.583" filterUnits="userSpaceOnUse" color-interpolation-filters="sRGB">
<feFlood flood-opacity="0" result="BackgroundImageFix"/>
<feBlend mode="normal" in="SourceGraphic" in2="BackgroundImageFix" result="shape"/>
<feGaussianBlur stdDeviation="0.5" result="effect1_foregroundBlur_1160_3024"/>
</filter>
<filter id="filter9_f_1160_3024" x="45.3174" y="34.7612" width="6.21484" height="10.583" filterUnits="userSpaceOnUse" color-interpolation-filters="sRGB">
<feFlood flood-opacity="0" result="BackgroundImageFix"/>
<feBlend mode="normal" in="SourceGraphic" in2="BackgroundImageFix" result="shape"/>
<feGaussianBlur stdDeviation="0.5" result="effect1_foregroundBlur_1160_3024"/>
</filter>
<filter id="filter10_f_1160_3024" x="32.9823" y="43.3442" width="15.8604" height="8.38477" filterUnits="userSpaceOnUse" color-interpolation-filters="sRGB">
<feFlood flood-opacity="0" result="BackgroundImageFix"/>
<feBlend mode="normal" in="SourceGraphic" in2="BackgroundImageFix" result="shape"/>
<feGaussianBlur stdDeviation="0.5" result="effect1_foregroundBlur_1160_3024"/>
</filter>
<filter id="filter11_f_1160_3024" x="44.5186" y="44.6462" width="2.69956" height="2.33506" filterUnits="userSpaceOnUse" color-interpolation-filters="sRGB">
<feFlood flood-opacity="0" result="BackgroundImageFix"/>
<feBlend mode="normal" in="SourceGraphic" in2="BackgroundImageFix" result="shape"/>
<feGaussianBlur stdDeviation="0.1" result="effect1_foregroundBlur_1160_3024"/>
</filter>
<filter id="filter12_f_1160_3024" x="48.0605" y="35.2607" width="3.47168" height="3.49854" filterUnits="userSpaceOnUse" color-interpolation-filters="sRGB">
<feFlood flood-opacity="0" result="BackgroundImageFix"/>
<feBlend mode="normal" in="SourceGraphic" in2="BackgroundImageFix" result="shape"/>
<feGaussianBlur stdDeviation="0.5" result="effect1_foregroundBlur_1160_3024"/>
</filter>
<filter id="filter13_f_1160_3024" x="32.6858" y="35.6411" width="3.47168" height="3.49854" filterUnits="userSpaceOnUse" color-interpolation-filters="sRGB">
<feFlood flood-opacity="0" result="BackgroundImageFix"/>
<feBlend mode="normal" in="SourceGraphic" in2="BackgroundImageFix" result="shape"/>
<feGaussianBlur stdDeviation="0.5" result="effect1_foregroundBlur_1160_3024"/>
</filter>
<linearGradient id="paint0_linear_1160_3024" x1="16.8997" y1="34.8737" x2="16.8997" y2="63.7586" gradientUnits="userSpaceOnUse">
<stop stop-color="#A67874"/>
<stop offset="1" stop-color="#8F5872"/>
</linearGradient>
<linearGradient id="paint1_linear_1160_3024" x1="16.8997" y1="43.4566" x2="16.8997" y2="65.0791" gradientUnits="userSpaceOnUse">
<stop stop-color="#B56595" stop-opacity="0"/>
<stop offset="1" stop-color="#CA6FA6"/>
</linearGradient>
<radialGradient id="paint2_radial_1160_3024" cx="0" cy="0" r="1" gradientUnits="userSpaceOnUse" gradientTransform="translate(26.9353 60.9527) rotate(-134.804) scale(41.4084 49.427)">
<stop offset="0.631933" stop-color="#F39585" stop-opacity="0"/>
<stop offset="1" stop-color="#F39585"/>
</radialGradient>
<linearGradient id="paint3_linear_1160_3024" x1="65.9666" y1="38.0098" x2="65.9666" y2="65.0791" gradientUnits="userSpaceOnUse">
<stop offset="0.09375" stop-color="#FAB8A9"/>
<stop offset="1" stop-color="#B56595"/>
</linearGradient>
<radialGradient id="paint4_radial_1160_3024" cx="0" cy="0" r="1" gradientUnits="userSpaceOnUse" gradientTransform="translate(75.2721 54.2679) rotate(-130.554) scale(21.9413 46.1002)">
<stop stop-color="#FFDACC" stop-opacity="0"/>
<stop offset="0.447917" stop-color="#FFDACC"/>
<stop offset="1" stop-color="#FFDACC" stop-opacity="0"/>
</radialGradient>
<radialGradient id="paint5_radial_1160_3024" cx="0" cy="0" r="1" gradientUnits="userSpaceOnUse" gradientTransform="translate(62.9233 28.9314) rotate(120.254) scale(56.3064 98.9168)">
<stop stop-color="#A06857"/>
<stop offset="1" stop-color="#5B3838"/>
</radialGradient>
<linearGradient id="paint6_linear_1160_3024" x1="41.5" y1="46.0176" x2="41.5" y2="90.5364" gradientUnits="userSpaceOnUse">
<stop stop-color="#682B5B" stop-opacity="0"/>
<stop offset="1" stop-color="#682B5B"/>
</linearGradient>
<radialGradient id="paint7_radial_1160_3024" cx="0" cy="0" r="1" gradientUnits="userSpaceOnUse" gradientTransform="translate(41.5023 38.1318) rotate(90) scale(54.5942 47.8835)">
<stop offset="0.688473" stop-color="#FF7AF2" stop-opacity="0"/>
<stop offset="1" stop-color="#FFBCE6"/>
</radialGradient>
<radialGradient id="paint8_radial_1160_3024" cx="0" cy="0" r="1" gradientUnits="userSpaceOnUse" gradientTransform="translate(60.9334 25.8736) rotate(123.275) scale(50.0293 49.6786)">
<stop stop-color="#A9705E"/>
<stop offset="1" stop-color="#A9705E" stop-opacity="0"/>
</radialGradient>
<linearGradient id="paint9_linear_1160_3024" x1="41.5" y1="23.5059" x2="41.5" y2="71.166" gradientUnits="userSpaceOnUse">
<stop stop-color="#FFC8BC"/>
<stop offset="0.188" stop-color="#FAB8A9"/>
<stop offset="0.895425" stop-color="#AC628E"/>
</linearGradient>
<radialGradient id="paint10_radial_1160_3024" cx="0" cy="0" r="1" gradientUnits="userSpaceOnUse" gradientTransform="translate(65.6359 32.5427) rotate(159.039) scale(52.5999 71.5276)">
<stop offset="0.817708" stop-color="#A55F89" stop-opacity="0"/>
<stop offset="1" stop-color="#A55F89"/>
</radialGradient>
<radialGradient id="paint11_radial_1160_3024" cx="0" cy="0" r="1" gradientUnits="userSpaceOnUse" gradientTransform="translate(41.5018 40.6603) rotate(90.003) scale(33.5498 28.1326)">
<stop offset="0.812621" stop-color="#EF5CF2" stop-opacity="0"/>
<stop offset="1" stop-color="#FF63C4"/>
</radialGradient>
<linearGradient id="paint12_linear_1160_3024" x1="17.2394" y1="62.2817" x2="10.6258" y2="28.8678" gradientUnits="userSpaceOnUse">
<stop stop-color="#7C6160" stop-opacity="0"/>
<stop offset="0.502642" stop-color="#7C6160"/>
<stop offset="1" stop-color="#7C6160" stop-opacity="0"/>
</linearGradient>
<linearGradient id="paint13_linear_1160_3024" x1="64.7877" y1="60.6225" x2="73.5893" y2="39.7629" gradientUnits="userSpaceOnUse">
<stop stop-color="#BE8B89" stop-opacity="0"/>
<stop offset="0.295666" stop-color="#BE8B89" stop-opacity="0.6"/>
<stop offset="0.808331" stop-color="#BE8B89" stop-opacity="0"/>
</linearGradient>
<linearGradient id="paint14_linear_1160_3024" x1="63.6198" y1="39.1694" x2="54.0158" y2="25.0208" gradientUnits="userSpaceOnUse">
<stop stop-color="#FFDACC" stop-opacity="0"/>
<stop offset="0.557292" stop-color="#FFDACC"/>
<stop offset="1" stop-color="#FFDACC" stop-opacity="0"/>
</linearGradient>
<linearGradient id="paint15_linear_1160_3024" x1="59.0527" y1="59.9723" x2="57.2244" y2="49.224" gradientUnits="userSpaceOnUse">
<stop offset="0.0255118" stop-color="#FFDACC" stop-opacity="0"/>
<stop offset="1" stop-color="#FFDACC"/>
</linearGradient>
<radialGradient id="paint16_radial_1160_3024" cx="0" cy="0" r="1" gradientUnits="userSpaceOnUse" gradientTransform="translate(43.1945 66.5591) rotate(-90) scale(23.9553 45.831)">
<stop stop-color="#EF0084"/>
<stop offset="0.547619" stop-color="#89029C"/>
</radialGradient>
<linearGradient id="paint17_linear_1160_3024" x1="41.1145" y1="38.2381" x2="29.8424" y2="38.2381" gradientUnits="userSpaceOnUse">
<stop stop-color="#432A3D"/>
<stop offset="0.567708" stop-color="#684E61"/>
<stop offset="0.765625" stop-color="#43253D"/>
</linearGradient>
<linearGradient id="paint18_linear_1160_3024" x1="34.6112" y1="37.8147" x2="34.6112" y2="44.0362" gradientUnits="userSpaceOnUse">
<stop offset="0.326531" stop-color="#43253D" stop-opacity="0"/>
<stop offset="1" stop-color="#43253D"/>
</linearGradient>
<linearGradient id="paint19_linear_1160_3024" x1="56.6597" y1="38.2381" x2="45.3875" y2="38.2381" gradientUnits="userSpaceOnUse">
<stop stop-color="#432A3D"/>
<stop offset="0.567708" stop-color="#684E61"/>
<stop offset="0.765625" stop-color="#43253D"/>
</linearGradient>
<linearGradient id="paint20_linear_1160_3024" x1="50.1564" y1="37.8147" x2="50.1564" y2="44.0362" gradientUnits="userSpaceOnUse">
<stop offset="0.326531" stop-color="#43253D" stop-opacity="0"/>
<stop offset="1" stop-color="#43253D"/>
</linearGradient>
<linearGradient id="paint21_linear_1160_3024" x1="41.5" y1="43.2773" x2="41.5" y2="48.9247" gradientUnits="userSpaceOnUse">
<stop stop-color="#E9A4A2"/>
<stop offset="1" stop-color="#DC89A8"/>
</linearGradient>
<linearGradient id="paint22_linear_1160_3024" x1="40.1847" y1="56.311" x2="38.1975" y2="46.7777" gradientUnits="userSpaceOnUse">
<stop offset="0.0700389" stop-color="#C971B6"/>
<stop offset="1" stop-color="#DC90CC" stop-opacity="0"/>
</linearGradient>
<radialGradient id="paint23_radial_1160_3024" cx="0" cy="0" r="1" gradientUnits="userSpaceOnUse" gradientTransform="translate(38.6583 46.332) rotate(132.659) scale(4.98413 2.99254)">
<stop stop-color="#3E2739"/>
<stop offset="1" stop-color="#684E61"/>
</radialGradient>
<radialGradient id="paint24_radial_1160_3024" cx="0" cy="0" r="1" gradientUnits="userSpaceOnUse" gradientTransform="translate(45.6705 46.332) rotate(128.902) scale(3.1968 4.98375)">
<stop stop-color="#3C2737"/>
<stop offset="1" stop-color="#684E61"/>
</radialGradient>
<linearGradient id="paint25_linear_1160_3024" x1="45.8585" y1="44.871" x2="45.8585" y2="46.7786" gradientUnits="userSpaceOnUse">
<stop stop-color="#FFDACC" stop-opacity="0"/>
<stop offset="0.348958" stop-color="#FFEBE3"/>
</linearGradient>
</defs>
</svg>
